HIERARCHY
ROOT joint_Root
{
	OFFSET 0.0 0.0 0.0
	CHANNELS 6 Xposition Yposition Zposition Zrotation Xrotation Yrotation 
	JOINT Hips
	{
		OFFSET 4.5925 91.4895 -427.239
		CHANNELS 6 Xposition Yposition Zposition Zrotation Xrotation Yrotation 
		JOINT Spine
		{
			OFFSET 15.7357 0.0 0.0
			CHANNELS 6 Xposition Yposition Zposition Zrotation Xrotation Yrotation 
			JOINT Chest
			{
				OFFSET 8.98455 -0.406207 0.0
				CHANNELS 6 Xposition Yposition Zposition Zrotation Xrotation Yrotation 
				JOINT Neck
				{
					OFFSET 16.3773 0.0 0.0
					CHANNELS 6 Xposition Yposition Zposition Zrotation Xrotation Yrotation 
					JOINT Head
					{
						OFFSET 6.45672 0.0 0.0
						CHANNELS 6 Xposition Yposition Zposition Zrotation Xrotation Yrotation 
						End Site
						{
							OFFSET 0.0 0.0 0.0
						}
					}
				}
				JOINT Shoulder_L
				{
					OFFSET 12.9942 -0.242716 4.98039
					CHANNELS 6 Xposition Yposition Zposition Zrotation Xrotation Yrotation 
					JOINT UpperArm_L
					{
						OFFSET 5.34809 0.0 0.0
						CHANNELS 6 Xposition Yposition Zposition Zrotation Xrotation Yrotation 
						JOINT LowerArm_L
						{
							OFFSET 24.3286 1.87007e-05 0.0
							CHANNELS 6 Xposition Yposition Zposition Zrotation Xrotation Yrotation 
							JOINT Hand_L
							{
								OFFSET 22.2916 0.0 0.0
								CHANNELS 6 Xposition Yposition Zposition Zrotation Xrotation Yrotation 
								End Site
								{
									OFFSET 0.0 0.0 0.0
								}
							}
						}
					}
				}
				JOINT Shoulder_R
				{
					OFFSET 12.9945 -0.242716 -4.98039
					CHANNELS 6 Xposition Yposition Zposition Zrotation Xrotation Yrotation 
					JOINT UpperArm_R
					{
						OFFSET -5.34813 0.0 0.0
						CHANNELS 6 Xposition Yposition Zposition Zrotation Xrotation Yrotation 
						JOINT LowerArm_R
						{
							OFFSET -24.3289 0.000322201 0.0
							CHANNELS 6 Xposition Yposition Zposition Zrotation Xrotation Yrotation 
							JOINT Hand_R
							{
								OFFSET -22.2915 -0.000108084 0.0
								CHANNELS 6 Xposition Yposition Zposition Zrotation Xrotation Yrotation 
								End Site
								{
									OFFSET 0.0 0.0 0.0
								}
							}
						}
					}
				}
			}
		}
		JOINT UpperLeg_L
		{
			OFFSET -2.19248 -6.46944 0.0
			CHANNELS 6 Xposition Yposition Zposition Zrotation Xrotation Yrotation 
			JOINT LowerLeg_L
			{
				OFFSET 39.0811 0.0 -1.23785e-05
				CHANNELS 6 Xposition Yposition Zposition Zrotation Xrotation Yrotation 
				JOINT Foot_L
				{
					OFFSET 40.9854 0.0 -1.26872e-05
					CHANNELS 6 Xposition Yposition Zposition Zrotation Xrotation Yrotation 
					JOINT Toes_L
					{
						OFFSET 11.7543 0.0 0.0
						CHANNELS 6 Xposition Yposition Zposition Zrotation Xrotation Yrotation 
						End Site
						{
							OFFSET 0.0 0.0 0.0
						}
					}
				}
			}
		}
		JOINT UpperLeg_R
		{
			OFFSET -2.19251 6.46944 0.0
			CHANNELS 6 Xposition Yposition Zposition Zrotation Xrotation Yrotation 
			JOINT LowerLeg_R
			{
				OFFSET -39.0811 -0.00228153 -0.0401928
				CHANNELS 6 Xposition Yposition Zposition Zrotation Xrotation Yrotation 
				JOINT Foot_R
				{
					OFFSET -40.9854 0.0 0.0
					CHANNELS 6 Xposition Yposition Zposition Zrotation Xrotation Yrotation 
					JOINT Toes_R
					{
						OFFSET -11.7543 0.0 0.0
						CHANNELS 6 Xposition Yposition Zposition Zrotation Xrotation Yrotation 
						End Site
						{
							OFFSET 0.0 0.0 0.0
						}
					}
				}
			}
		}
	}
}
MOTION
Frames:	4
Frame Time:	0.0333333
0.000000 0.000000 0.000000 0.000000 0.000000 -0.000000 -188.735000 90.505600 191.640000 90.633800 77.817900 -4.480850 15.735700 0.000005 -0.000001 119.710000 81.410500 -121.346000 8.984550 -0.406207 -0.000000 7.339840 8.489250 -3.819480 16.377300 -0.000001 -0.000001 1.594550 -1.462460 0.419387 6.456720 -0.000001 -0.000000 -5.770780 -5.032270 -1.090320 12.994200 -0.242716 4.980390 -86.781600 -7.813310 -67.529300 5.348090 -0.000007 -0.000001 -71.939000 36.785800 32.699800 24.328600 0.000019 0.000005 8.677630 2.833280 -72.049100 22.291600 -0.000001 0.000005 11.305500 5.517080 -7.238300 12.994500 -0.242716 -4.980390 90.153500 -1.060770 -81.774300 -5.348130 -0.000001 -0.000004 -60.125400 28.821300 -37.780000 -24.328900 0.000322 -0.000009 -14.158000 4.728630 -108.104000 -22.291500 -0.000108 -0.000004 25.791100 5.613160 -12.162500 -2.192480 -6.469440 -0.000000 178.710000 -6.860640 -32.788500 39.081100 -0.000007 -0.000012 0.008005 -0.010910 36.263300 40.985400 -0.000006 -0.000013 -1.798090 -3.671590 -67.930400 11.754300 -0.000000 0.000003 -0.004002 -0.051471 -18.670500 -2.192510 6.469440 -0.000001 172.211000 16.420300 -177.798000 -39.081100 -0.002282 -0.040193 0.016025 -0.022423 29.569500 -40.985400 0.000008 0.000006 5.250740 16.614600 -64.506200 -11.754300 -0.000006 -0.000006 -0.084608 -0.404641 -33.392900
0.000000 0.000000 0.000000 0.000000 0.000000 -0.000000 -185.670000 88.006900 191.790000 87.127500 78.660600 -1.290240 15.735700 0.000005 -0.000001 117.331000 81.670600 -118.814000 8.984550 -0.406207 -0.000000 7.182410 7.629270 -3.445590 16.377300 -0.000001 -0.000001 0.946091 -1.867530 0.964150 6.456720 -0.000001 -0.000000 -6.846150 -4.760280 -1.042800 12.994200 -0.242716 4.980390 -88.472300 -3.872240 -68.458000 5.348090 -0.000007 -0.000001 -67.475000 33.094300 25.509800 24.328600 0.000019 0.000005 10.271500 2.489390 -76.509800 22.291600 -0.000001 0.000005 11.982200 5.511680 -7.008210 12.994500 -0.242716 -4.980390 89.859000 1.098200 -82.664500 -5.348130 -0.000001 -0.000004 -60.991900 32.364500 -30.211000 -24.328900 0.000322 -0.000009 -16.804800 2.719090 -98.938900 -22.291500 -0.000108 -0.000004 25.152000 5.610800 -12.005800 -2.192480 -6.469440 -0.000000 177.568000 -11.294800 -36.101600 39.081100 -0.000007 -0.000012 0.140784 -0.160470 41.260900 40.985400 -0.000006 -0.000013 1.295800 -8.636180 -67.338500 11.754300 -0.000000 0.000003 -0.003921 -0.050628 -18.636200 -2.192510 6.469440 -0.000001 172.352000 15.252700 -175.635000 -39.081100 -0.002282 -0.040193 -0.010300 0.022528 31.118600 -40.985400 0.000008 0.000006 5.501450 14.953100 -70.743000 -11.754300 -0.000006 -0.000006 -0.079611 -0.390853 -32.798300
0.000000 0.000000 0.000000 0.000000 0.000000 -0.000000 -182.036000 85.600300 191.755000 86.752500 79.755500 -0.961346 15.735700 0.000005 -0.000001 113.238000 82.042800 -114.780000 8.984550 -0.406207 -0.000000 6.975630 6.268720 -3.465350 16.377300 -0.000001 -0.000001 0.258351 -2.162510 1.930540 6.456720 -0.000001 -0.000000 -7.319650 -4.373260 -0.859195 12.994200 -0.242716 4.980390 -90.786800 2.044520 -68.957300 5.348090 -0.000007 -0.000001 -62.017100 30.083100 16.912700 24.328600 0.000019 0.000005 12.618400 1.856510 -81.761900 22.291600 -0.000001 0.000005 14.104000 5.533060 -7.913440 12.994500 -0.242716 -4.980390 89.410600 5.051340 -83.335000 -5.348130 -0.000001 -0.000004 -60.942600 34.896200 -21.486200 -24.328900 0.000322 -0.000009 -18.445600 -1.325720 -86.027500 -22.291500 -0.000108 -0.000004 23.480300 5.596990 -11.120300 -2.192480 -6.469440 -0.000000 176.790000 -14.516000 -39.563300 39.081100 -0.000007 -0.000012 -0.145018 0.121643 50.010700 40.985400 -0.000006 -0.000013 1.547800 -7.545340 -65.830400 11.754300 -0.000000 0.000003 -0.000433 -0.006996 -16.861600 -2.192510 6.469440 -0.000001 171.914000 14.189200 -173.652000 -39.081100 -0.002282 -0.040193 -0.018432 0.032599 33.681700 -40.985400 0.000008 0.000006 5.659140 12.460800 -75.210200 -11.754300 -0.000006 -0.000006 -0.084259 -0.403693 -33.351900
0.000000 0.000000 0.000000 0.000000 0.000000 -0.000000 -177.671000 84.006100 191.593000 88.226700 81.737000 -1.596980 15.735700 0.000005 -0.000001 108.649000 82.169000 -110.422000 8.984550 -0.406207 -0.000000 7.174410 4.999760 -3.858020 16.377300 -0.000001 -0.000001 -0.320162 -2.720410 2.358910 6.456720 -0.000001 -0.000000 -7.361970 -5.180940 1.454590 12.994200 -0.242716 4.980390 -92.856400 7.115040 -68.057700 5.348090 -0.000007 -0.000001 -56.914400 30.580500 2.622360 24.328600 0.000019 0.000005 12.913300 0.766987 -86.664000 22.291600 -0.000001 0.000005 16.582000 5.560290 -9.182050 12.994500 -0.242716 -4.980390 88.752800 9.378450 -82.394800 -5.348130 -0.000001 -0.000004 -61.654400 35.840700 -12.680300 -24.328900 0.000322 -0.000009 -15.059900 -7.134580 -65.200400 -22.291500 -0.000108 -0.000004 18.808600 5.566860 -9.513240 -2.192480 -6.469440 -0.000000 176.811000 -13.275300 -38.952900 39.081100 -0.000007 -0.000012 -0.361697 0.238031 56.652200 40.985400 -0.000006 -0.000013 1.245080 -6.512680 -72.163900 11.754300 -0.000000 0.000003 -0.000198 -0.001836 -16.646800 -2.192510 6.469440 -0.000001 171.616000 12.354400 -172.551000 -39.081100 -0.002282 -0.040193 0.014713 -0.014212 38.811300 -40.985400 0.000008 0.000006 5.174810 9.402770 -73.638500 -11.754300 -0.000006 -0.000006 -0.150654 -0.556028 -40.092800
